# xmcd
#
# Track frame offsets:
#	150
#	10707
#	22372
#	36519
#	55530
#	68085
#	78471
#	91124
#	103675
#	117903
#	125687
#	141116
#	148920
#
# Disc length: 2177 seconds
# Revision: 0
# Processed by: cddbd v1.5.2PL0 Copyright (c) Steve Scherf et al.
# Submitted via: dBpowerAMP V12.0
#
DISCID=b5087f0d
DTITLE=Eeco Rijken Rapp - Boogie Cocktail
DYEAR=2013
DGENRE=Blues
TTITLE0=Glendale Glide
TTITLE1=Big Flat Boogie
TTITLE2=Down the road a piece
TTITLE3=St. Louis Blues
TTITLE4=Chicago Stomp
TTITLE5=Five O'clock Blues
TTITLE6=Handful of keys
TTITLE7=Bottomland Boogie
TTITLE8=Coming to the back door
TTITLE9=Jesse James
TTITLE10=Detroit Rocks
TTITLE11=Farish Street Jive
TTITLE12=Sit right down and write myself a letter
EXTD=
EXTT0=
EXTT1=
EXTT2=
EXTT3=
EXTT4=
EXTT5=
EXTT6=
EXTT7=
EXTT8=
EXTT9=
EXTT10=
EXTT11=
EXTT12=
PLAYORDER=
